<svg width="21" height="21" viewBox="0 0 21 21" fill="none" xmlns="http://www.w3.org/2000/svg">
<path d="M18.729 2.70158C18.5017 2.49041 18.233 2.32883 17.9399 2.22711C17.6468 2.1254 17.3357 2.08577 17.0265 2.11075C17.009 2.11075 16.9431 2.11075 16.9231 2.11075C14.7463 2.38086 12.6459 3.08534 10.7465 4.18242L10.614 4.26575C10.5383 4.29103 10.4562 4.28956 10.3815 4.26158L10.1823 4.14158C8.28548 3.05688 6.19019 2.36402 4.02064 2.10408C3.70439 2.07413 3.38538 2.11106 3.08434 2.21246C2.7833 2.31387 2.50697 2.47749 2.27331 2.69268C2.03964 2.90788 1.85387 3.16983 1.72807 3.46152C1.60228 3.75322 1.53927 4.06811 1.54314 4.38575V14.4524C1.55465 15.0044 1.76054 15.5346 2.12456 15.9497C2.48858 16.3648 2.98739 16.6381 3.53314 16.7216L3.7773 16.7549C5.86973 17.1067 7.89685 17.7731 9.7898 18.7316C10.0079 18.8477 10.2518 18.9071 10.499 18.9041C10.7421 18.9076 10.982 18.8485 11.1956 18.7324C13.0799 17.7721 15.0999 17.1055 17.1856 16.7557L17.4623 16.7224C18.0099 16.6409 18.5111 16.3683 18.8771 15.9529C19.2432 15.5375 19.4504 15.006 19.4623 14.4524V4.39325C19.4652 4.07567 19.4014 3.761 19.2751 3.46961C19.1488 3.17821 18.9627 2.91657 18.729 2.70158ZM3.9448 15.5166L3.6948 15.4824C3.44965 15.4392 3.22662 15.3135 3.06265 15.1261C2.89867 14.9388 2.80359 14.7011 2.79314 14.4524V4.38575C2.79068 4.2408 2.81863 4.09694 2.87518 3.96346C2.93173 3.82997 3.01563 3.70982 3.12147 3.61075C3.31246 3.43744 3.56192 3.34278 3.8198 3.34575C3.8523 3.34575 3.8848 3.34575 3.91814 3.34575C5.89331 3.59054 7.8005 4.22382 9.5298 5.20908L9.7298 5.32825C9.77743 5.35193 9.8264 5.3728 9.87647 5.39075V17.3766C7.99517 16.4843 5.99878 15.8582 3.9448 15.5166ZM18.2098 14.4524C18.1995 14.701 18.1046 14.9385 17.9407 15.1257C17.7769 15.3129 17.554 15.4385 17.309 15.4816L17.0273 15.5157C14.9839 15.8555 12.9978 16.4784 11.1265 17.3666V5.39325C11.1795 5.37455 11.2312 5.35256 11.2815 5.32742L11.4181 5.23992C13.1307 4.25725 15.0189 3.61888 16.9765 3.36075C16.994 3.36075 17.0598 3.36075 17.079 3.36075C17.2231 3.34457 17.369 3.35937 17.5069 3.40416C17.6448 3.44896 17.7715 3.52271 17.8786 3.62048C17.9857 3.71825 18.0706 3.83778 18.1277 3.97106C18.1849 4.10433 18.2128 4.24828 18.2098 4.39325V14.4524Z" fill="#6B718C"/>
<path d="M4.46094 7.57739C4.46094 7.41163 4.52679 7.25266 4.644 7.13545C4.76121 7.01824 4.92018 6.95239 5.08594 6.95239H6.96094C7.1267 6.95239 7.28567 7.01824 7.40288 7.13545C7.52009 7.25266 7.58594 7.41163 7.58594 7.57739C7.58594 7.74315 7.52009 7.90212 7.40288 8.01933C7.28567 8.13654 7.1267 8.20239 6.96094 8.20239H5.08594C4.92018 8.20239 4.76121 8.13654 4.644 8.01933C4.52679 7.90212 4.46094 7.74315 4.46094 7.57739ZM7.58594 9.45239H5.08594C4.92018 9.45239 4.76121 9.51824 4.644 9.63545C4.52679 9.75266 4.46094 9.91163 4.46094 10.0774C4.46094 10.2432 4.52679 10.4021 4.644 10.5193C4.76121 10.6365 4.92018 10.7024 5.08594 10.7024H7.58594C7.7517 10.7024 7.91067 10.6365 8.02788 10.5193C8.14509 10.4021 8.21094 10.2432 8.21094 10.0774C8.21094 9.91163 8.14509 9.75266 8.02788 9.63545C7.91067 9.51824 7.7517 9.45239 7.58594 9.45239Z" fill="#2680EB"/>
</svg>
