<svg width="21" height="21" viewBox="0 0 21 21" fill="none" xmlns="http://www.w3.org/2000/svg">
<path d="M13.75 1.54175H7.91667C4.24417 1.54175 3.125 2.66091 3.125 6.33341V15.9167C3.1261 16.8557 3.4996 17.7559 4.16355 18.4199C4.8275 19.0838 5.7277 19.4573 6.66667 19.4584H15C15.939 19.4573 16.8392 19.0838 17.5031 18.4199C18.1671 17.7559 18.5406 16.8557 18.5417 15.9167V6.33341C18.5417 2.66091 17.4225 1.54175 13.75 1.54175ZM7.91667 2.79175H13.75C16.7292 2.79175 17.2917 3.35425 17.2917 6.33341V12.3751H6.12667C5.49715 12.3765 4.88434 12.5778 4.37667 12.9501V6.33341C4.375 3.35425 4.9375 2.79175 7.91667 2.79175ZM15 18.2084H6.66667C6.05901 18.208 5.47638 17.9664 5.0467 17.5367C4.61703 17.107 4.37544 16.5244 4.375 15.9167V15.3767C4.375 14.9126 4.55937 14.4675 4.88756 14.1393C5.21575 13.8111 5.66087 13.6267 6.125 13.6267H17.2917V14.6667C17.2917 14.7692 17.2917 14.8709 17.285 14.9734C17.285 14.9909 17.2917 15.0059 17.2917 15.0234V15.9167C17.2912 16.5244 17.0496 17.107 16.62 17.5367C16.1903 17.9664 15.6077 18.208 15 18.2084Z" fill="#6B718C"/>
<path d="M14.7917 6.3335C14.7917 6.49926 14.7258 6.65823 14.6086 6.77544C14.4914 6.89265 14.3324 6.9585 14.1667 6.9585H7.5C7.33424 6.9585 7.17527 6.89265 7.05806 6.77544C6.94085 6.65823 6.875 6.49926 6.875 6.3335C6.875 6.16774 6.94085 6.00876 7.05806 5.89155C7.17527 5.77434 7.33424 5.7085 7.5 5.7085H14.1667C14.3324 5.7085 14.4914 5.77434 14.6086 5.89155C14.7258 6.00876 14.7917 6.16774 14.7917 6.3335ZM11.6667 8.62516H7.5C7.33424 8.62516 7.17527 8.69101 7.05806 8.80822C6.94085 8.92543 6.875 9.0844 6.875 9.25016C6.875 9.41592 6.94085 9.57489 7.05806 9.6921C7.17527 9.80931 7.33424 9.87516 7.5 9.87516H11.6667C11.8324 9.87516 11.9914 9.80931 12.1086 9.6921C12.2258 9.57489 12.2917 9.41592 12.2917 9.25016C12.2917 9.0844 12.2258 8.92543 12.1086 8.80822C11.9914 8.69101 11.8324 8.62516 11.6667 8.62516Z" fill="#2680EB"/>
</svg>
