<svg width="21" height="21" viewBox="0 0 21 21" fill="none" xmlns="http://www.w3.org/2000/svg">
<path d="M18.293 9.65186C18.2719 10.1474 18.1182 10.6282 17.848 11.0441C17.5777 11.4601 17.2008 11.7958 16.7565 12.0164L11.099 14.531C10.8058 14.6606 10.4889 14.7275 10.1684 14.7275C9.84788 14.7275 9.53092 14.6606 9.23779 14.531L3.57946 12.0164C3.13518 11.7958 2.75824 11.4601 2.48798 11.0441C2.21771 10.6282 2.06403 10.1474 2.04297 9.65186C2.04297 9.4861 2.10882 9.32712 2.22603 9.20991C2.34324 9.0927 2.50221 9.02686 2.66797 9.02686C2.83373 9.02686 2.9927 9.0927 3.10991 9.20991C3.22712 9.32712 3.29297 9.4861 3.29297 9.65186C3.31241 9.90576 3.39532 10.1507 3.53411 10.3642C3.67289 10.5777 3.86309 10.7529 4.08724 10.8738L9.74479 13.3884C9.87823 13.4474 10.0225 13.4778 10.1684 13.4778C10.3143 13.4778 10.4585 13.4474 10.592 13.3884L16.2487 10.8738C16.4729 10.7529 16.663 10.5777 16.8018 10.3642C16.9406 10.1507 17.0235 9.90576 17.043 9.65186C17.043 9.4861 17.1088 9.32712 17.226 9.20991C17.3432 9.0927 17.5022 9.02686 17.668 9.02686C17.8337 9.02686 17.9927 9.0927 18.1099 9.20991C18.2271 9.32712 18.293 9.4861 18.293 9.65186Z" fill="#2680EB"/>
<path d="M3.80485 7.9588L8.72591 10.1459C9.54151 10.4671 10.4486 10.4671 11.2642 10.1459L16.1852 7.9588C17.4303 7.40501 17.6167 6.64777 17.6167 6.24534C17.6167 5.84292 17.4303 5.08567 16.1852 4.53188L11.2642 2.34479C10.4485 2.02374 9.54154 2.02374 8.72591 2.34479L3.80485 4.53188C2.55974 5.08567 2.37337 5.84292 2.37337 6.24534C2.37337 6.64777 2.55974 7.40501 3.80485 7.9588ZM4.31266 5.67446L9.23373 3.4874C9.72576 3.30999 10.2643 3.30999 10.7563 3.4874L15.6774 5.67449C16.1828 5.8991 16.3667 6.13877 16.3667 6.24537C16.3667 6.35198 16.1828 6.59165 15.6774 6.81626L10.7563 9.00332C10.2642 9.18032 9.72583 9.18032 9.23373 9.00332L4.31266 6.81622C3.80729 6.59162 3.62337 6.35195 3.62337 6.24534C3.62337 6.13873 3.80729 5.89907 4.31266 5.67446ZM18.293 13.8186C18.2927 14.319 18.1475 14.8087 17.8748 15.2283C17.6021 15.6479 17.2137 15.9796 16.7565 16.1831L11.099 18.6977C10.8058 18.8273 10.4889 18.8943 10.1684 18.8943C9.84788 18.8943 9.53092 18.8273 9.23779 18.6977L3.57946 16.1831C3.12226 15.9796 2.73383 15.6479 2.46115 15.2283C2.18846 14.8087 2.04322 14.319 2.04297 13.8186C2.04297 13.6528 2.10882 13.4939 2.22603 13.3766C2.34324 13.2594 2.50221 13.1936 2.66797 13.1936C2.83373 13.1936 2.9927 13.2594 3.10991 13.3766C3.22712 13.4939 3.29297 13.6528 3.29297 13.8186C3.29302 14.0772 3.36808 14.3303 3.50906 14.5472C3.65003 14.7641 3.85086 14.9354 4.08724 15.0405L9.74479 17.5552C9.87823 17.6141 10.0225 17.6446 10.1684 17.6446C10.3143 17.6446 10.4585 17.6141 10.592 17.5552L16.2487 15.0405C16.4851 14.9354 16.6859 14.7641 16.8269 14.5472C16.9679 14.3303 17.0429 14.0772 17.043 13.8186C17.043 13.6528 17.1088 13.4939 17.226 13.3766C17.3432 13.2594 17.5022 13.1936 17.668 13.1936C17.8337 13.1936 17.9927 13.2594 18.1099 13.3766C18.2271 13.4939 18.293 13.6528 18.293 13.8186Z" fill="#6B718C"/>
</svg>
