<svg width="16" height="16" viewBox="0 0 16 16" fill="none" xmlns="http://www.w3.org/2000/svg">
<g clip-path="url(#clip0_14714_1644)">
<path d="M15.4592 13.553L13.6573 11.7511C13.6181 11.7202 13.5765 11.6925 13.5329 11.6682C14.5366 10.2 14.9562 8.40999 14.7094 6.64868C14.4626 4.88736 13.5673 3.28157 12.1988 2.1457C10.8303 1.00982 9.08702 0.425662 7.31039 0.507583C5.53376 0.589505 3.85168 1.33161 2.59347 2.58861C1.33526 3.8456 0.591538 5.52697 0.507904 7.30352C0.42427 9.08007 1.00675 10.8239 2.1413 12.1935C3.27586 13.5631 4.88078 14.46 6.64186 14.7085C8.40294 14.9569 10.1933 14.5391 11.6625 13.5368C11.6881 13.5796 11.7157 13.6211 11.7454 13.6612L13.5474 15.4631C13.8021 15.7094 14.1434 15.8458 14.4978 15.8429C14.8521 15.8399 15.1912 15.698 15.4419 15.4475C15.6925 15.1971 15.8348 14.8582 15.8381 14.5038C15.8413 14.1495 15.7053 13.808 15.4592 13.553ZM7.65687 12.0755C6.78372 12.0755 5.93018 11.8165 5.20418 11.3315C4.47818 10.8464 3.91234 10.1569 3.5782 9.35019C3.24406 8.54351 3.15663 7.65585 3.32697 6.79948C3.49732 5.94311 3.91778 5.15648 4.53519 4.53907C5.1526 3.92166 5.93923 3.5012 6.7956 3.33086C7.65197 3.16051 8.53962 3.24794 9.3463 3.58208C10.153 3.91622 10.8425 4.48207 11.3276 5.20806C11.8127 5.93406 12.0716 6.7876 12.0716 7.66075C12.0702 8.83117 11.6046 9.95323 10.777 10.7808C9.94935 11.6085 8.82728 12.074 7.65687 12.0755Z" fill="#B4B7C5"/>
</g>
<defs>
<clipPath id="clip0_14714_1644">
<rect width="16" height="16" fill="white"/>
</clipPath>
</defs>
</svg>
