<svg width="14" height="14" viewBox="0 0 14 14" fill="none" xmlns="http://www.w3.org/2000/svg">
<g clip-path="url(#clip0_9759_174465)">
<path d="M14 6.99997C13.9999 7.57254 13.7723 8.12162 13.3675 8.52649C12.9626 8.93135 12.4135 9.15887 11.841 9.15902H9.26854V11.841C9.26854 12.4136 9.04107 12.9627 8.63618 13.3676C8.23128 13.7725 7.68212 14 7.10951 14C6.53689 14 5.98773 13.7725 5.58284 13.3676C5.17794 12.9627 4.95047 12.4136 4.95047 11.841V9.15902H2.15904C1.58642 9.15902 1.03727 8.93155 0.632367 8.52665C0.227469 8.12175 0 7.57259 0 6.99997C0 6.42736 0.227469 5.87819 0.632367 5.47329C1.03727 5.0684 1.58642 4.84093 2.15904 4.84093H4.95047V2.15905C4.95047 1.58643 5.17794 1.03727 5.58284 0.63237C5.98773 0.22747 6.53689 0 7.10951 0C7.68212 0 8.23128 0.22747 8.63618 0.63237C9.04107 1.03727 9.26854 1.58643 9.26854 2.15905V4.84093H11.841C12.4135 4.84108 12.9626 5.0686 13.3675 5.47346C13.7723 5.87833 13.9998 6.4274 14 6.99997Z" fill="white"/>
</g>
<defs>
<clipPath id="clip0_9759_174465">
<rect width="14" height="14" fill="white"/>
</clipPath>
</defs>
</svg>
