<svg width="25" height="25" viewBox="0 0 25 25" fill="none" xmlns="http://www.w3.org/2000/svg">
<g clip-path="url(#clip0_14714_9667)">
<path d="M15.8775 12.5L20.5683 7.80922C21.1439 7.23359 21.1439 6.30031 20.5683 5.72422L19.5258 4.68172C18.9502 4.10609 18.0169 4.10609 17.4408 4.68172L12.75 9.3725L8.05922 4.68172C7.48359 4.10609 6.55031 4.10609 5.97422 4.68172L4.93172 5.72422C4.35609 6.29984 4.35609 7.23312 4.93172 7.80922L9.6225 12.5L4.93172 17.1908C4.35609 17.7664 4.35609 18.6997 4.93172 19.2758L5.97422 20.3183C6.54984 20.8939 7.48359 20.8939 8.05922 20.3183L12.75 15.6275L17.4408 20.3183C18.0164 20.8939 18.9502 20.8939 19.5258 20.3183L20.5683 19.2758C21.1439 18.7002 21.1439 17.7669 20.5683 17.1908L15.8775 12.5Z" fill="#6B718C"/>
</g>
<defs>
<clipPath id="clip0_14714_9667">
<rect width="24" height="24" fill="white" transform="translate(0.5 0.5)"/>
</clipPath>
</defs>
</svg>
