<svg width="11" height="10" viewBox="0 0 11 10" fill="none" xmlns="http://www.w3.org/2000/svg">
<g clip-path="url(#clip0_14714_1695)">
<g clip-path="url(#clip1_14714_1695)">
<path d="M1.37891 9.06251C1.37891 9.31115 1.47768 9.5496 1.65349 9.72542C1.82931 9.90123 2.06777 10 2.31641 10H7.94141C8.19005 10 8.4285 9.90123 8.60432 9.72542C8.78013 9.5496 8.87891 9.31115 8.87891 9.06251V2.5H1.37891V9.06251ZM6.69141 4.0625C6.69141 3.97962 6.72433 3.90014 6.78294 3.84153C6.84154 3.78293 6.92103 3.75 7.00391 3.75C7.08679 3.75 7.16627 3.78293 7.22488 3.84153C7.28348 3.90014 7.31641 3.97962 7.31641 4.0625V8.43751C7.31641 8.52039 7.28348 8.59987 7.22488 8.65848C7.16627 8.71708 7.08679 8.75001 7.00391 8.75001C6.92103 8.75001 6.84154 8.71708 6.78294 8.65848C6.72433 8.59987 6.69141 8.52039 6.69141 8.43751V4.0625ZM4.81641 4.0625C4.81641 3.97962 4.84933 3.90014 4.90794 3.84153C4.96654 3.78293 5.04603 3.75 5.12891 3.75C5.21179 3.75 5.29127 3.78293 5.34988 3.84153C5.40848 3.90014 5.44141 3.97962 5.44141 4.0625V8.43751C5.44141 8.52039 5.40848 8.59987 5.34988 8.65848C5.29127 8.71708 5.21179 8.75001 5.12891 8.75001C5.04603 8.75001 4.96654 8.71708 4.90794 8.65848C4.84933 8.59987 4.81641 8.52039 4.81641 8.43751V4.0625ZM2.94141 4.0625C2.94141 3.97962 2.97433 3.90014 3.03294 3.84153C3.09154 3.78293 3.17103 3.75 3.25391 3.75C3.33679 3.75 3.41627 3.78293 3.47488 3.84153C3.53348 3.90014 3.56641 3.97962 3.56641 4.0625V8.43751C3.56641 8.52039 3.53348 8.59987 3.47488 8.65848C3.41627 8.71708 3.33679 8.75001 3.25391 8.75001C3.17103 8.75001 3.09154 8.71708 3.03294 8.65848C2.97433 8.59987 2.94141 8.52039 2.94141 8.43751V4.0625ZM9.19141 0.625004H6.84766L6.66406 0.259769C6.62517 0.181686 6.56526 0.116004 6.49108 0.0701125C6.41689 0.0242211 6.33137 -5.914e-05 6.24414 3.42436e-06H4.01172C3.92468 -0.000331157 3.83931 0.0238585 3.76539 0.069801C3.69147 0.115744 3.63198 0.181581 3.59375 0.259769L3.41016 0.625004H1.06641C0.983526 0.625004 0.904041 0.657928 0.845435 0.716533C0.78683 0.775138 0.753906 0.854624 0.753906 0.937504L0.753906 1.5625C0.753906 1.64538 0.78683 1.72487 0.845435 1.78347C0.904041 1.84208 0.983526 1.875 1.06641 1.875H9.19141C9.27429 1.875 9.35377 1.84208 9.41238 1.78347C9.47098 1.72487 9.50391 1.64538 9.50391 1.5625V0.937504C9.50391 0.854624 9.47098 0.775138 9.41238 0.716533C9.35377 0.657928 9.27429 0.625004 9.19141 0.625004V0.625004Z" fill="#6B718C"/>
</g>
</g>
<defs>
<clipPath id="clip0_14714_1695">
<rect width="10" height="10" fill="white" transform="translate(0.335938)"/>
</clipPath>
<clipPath id="clip1_14714_1695">
<rect width="10" height="10" fill="white" transform="translate(0.335938)"/>
</clipPath>
</defs>
</svg>
